Coordinates
version=1
nRows=14
nColumns=42
inDegrees=yes

Units are S.I. units (second, meters, Newtons, ...)
If the header above contains a line with 'inDegrees', this indicates whether rotational values are in degrees (yes) or radians (no).

endheader
time	pelvis_tilt	pelvis_list	pelvis_rotation	pelvis_tx	pelvis_ty	pelvis_tz	hip_flexion_r	hip_adduction_r	hip_rotation_r	knee_angle_r	knee_adduction_r	knee_angle_r_beta	ankle_angle_r	subtalar_angle_r	mtp_angle_r	hip_flexion_l	hip_adduction_l	hip_rotation_l	knee_angle_l	knee_adduction_l	knee_angle_l_beta	ankle_angle_l	subtalar_angle_l	mtp_angle_l	lumbar_extension	lumbar_bending	lumbar_rotation	arm_flex_r	arm_add_r	arm_rot_r	elbow_flex_r	pro_sup_r	wrist_flex_r	wrist_dev_r	arm_flex_l	arm_add_l	arm_rot_l	elbow_flex_l	pro_sup_l	wrist_flex_l	wrist_dev_l
      1.07000000	      9.35392619	     -3.34099533	      3.41020234	     -1.01837614	      0.90377772	      0.20926844	      2.64771481	      3.58564771	    -14.74105162	     31.87869989	      5.93545515	      0.55638827	     23.11201336	     16.59324947	     -7.90126164	     16.99717528	     -4.42983793	     -7.37219091	     74.10914483	     -6.23271468	      1.29344858	      9.17034361	    -16.53788225	     -7.90126164	    -23.01509837	      7.07955906	     -1.23205542	      7.67893206	    -10.87077078	    -14.82715279	     35.31205208	     90.00000001	      0.00000000	      0.00000000	     -3.24947573	     -5.87664196	    -28.18258567	     32.03662822	     90.00000001	      0.00000000	      0.00000000
      1.08000000	      9.59868429	     -3.15761841	      3.23685697	     -1.01133621	      0.90467250	      0.20972268	      1.60900710	      3.54693538	    -14.22222255	     31.40142492	      6.04535715	      0.54805825	     23.34409215	     16.39781995	     -7.88054678	     17.89232370	     -3.96201866	     -7.52489156	     72.86053772	     -6.33636302	      1.27165628	      9.67358710	    -15.82489512	     -7.88054678	    -23.49148264	      6.83849174	     -1.03533295	      8.25276468	    -11.28798642	    -12.98931127	     35.61438608	     90.00000001	      0.00000000	      0.00000000	     -3.50139419	     -5.69923127	    -28.19041585	     32.67076100	     90.00000001	      0.00000000	      0.00000000
      1.09000000	      9.61027021	     -2.96509504	      3.04545676	     -1.00441720	      0.90503359	      0.21032576	      0.97113864	      3.53710991	    -13.86879040	     31.14133381	      5.91590585	      0.54351881	     23.69008862	     16.33006936	     -7.87244338	     19.02824554	     -3.49132324	     -7.42056439	     71.47994739	     -6.16608960	      1.24756043	     10.13936086	    -15.25248653	     -7.87244338	    -23.69155311	      6.55311645	     -0.79972911	      8.93225943	    -11.36751624	    -12.62802553	     35.74786541	     90.00000001	      0.00000000	      0.00000000	     -3.70893210	     -5.55068140	    -28.17427288	     33.17835051	     90.00000001	      0.00000000	      0.00000000
      1.10000000	      9.81411290	     -2.72527911	      2.79812001	     -0.99722277	      0.90579391	      0.21091352	      0.00434839	      3.39415200	    -13.48804517	     30.74677094	      5.95566691	      0.53663239	     23.93331307	     16.47349922	     -7.85469697	     19.72692238	     -3.00991870	     -7.86096848	     69.60716052	     -6.39307107	      1.21487413	     10.48020739	    -14.19256253	     -7.85469697	    -24.08072742	      6.20942867	     -0.56823834	      9.59937840	    -11.54060581	    -11.76073833	     35.83555501	     90.00000001	      0.00000000	      0.00000000	     -3.96363068	     -5.37772234	    -28.23907593	     33.77796616	     90.00000001	      0.00000000	      0.00000000
      1.11000000	      9.85792102	     -2.52883052	      2.54162189	     -0.99016933	      0.90613266	      0.21155554	     -0.68097269	      3.32005779	    -13.15765152	     30.49211633	      5.87790254	      0.53218783	     24.29489585	     16.55416689	     -7.84230779	     20.55937698	     -2.60129538	     -7.96457400	     67.60695526	     -6.26399458	      1.17996397	     10.84421860	    -13.25641907	     -7.84230779	    -24.28540217	      5.90212963	     -0.32973460	     10.29137070	    -11.61607690	    -11.26742742	     35.85754052	     90.00000001	      0.00000000	      0.00000000	     -4.20626727	     -5.19490339	    -28.27049292	     34.34154769	     90.00000001	      0.00000000	      0.00000000
      1.12000000	      9.59305622	     -2.57852081	      2.35483559	     -0.98313833	      0.90564789	      0.21218398	     -0.87877486	      3.51077097	    -13.01171223	     30.47317446	      5.71012309	      0.53185723	     24.29721559	     16.49909716	     -7.83743076	     21.84121940	     -2.50735911	     -7.80828594	     65.69580796	     -5.97763636	      1.14660815	     10.87414126	    -12.56848673	     -7.83743076	    -24.10012323	      5.88480838	     -0.03408551	     10.80063773	    -11.69328698	    -11.10957637	     36.11561126	     90.00000001	      0.00000000	      0.00000000	     -4.42175554	     -4.97436564	    -28.21445325	     34.64043268	     90.00000001	      0.00000000	      0.00000000
      1.13000000	      9.95329664	     -2.14343355	      1.97815457	     -0.97569938	      0.90660000	      0.21280575	     -2.09550731	      3.09175777	    -12.62844573	     29.98207296	      5.73845813	      0.52328589	     24.83899970	     17.02908480	     -7.82225731	     21.89003395	     -1.85348802	     -8.61916328	     62.86617117	     -6.28180810	      1.09722168	     11.41391076	    -10.84589667	     -7.82225731	    -24.63786348	      5.27510582	      0.13374458	     11.59026634	    -11.75312596	    -10.16566475	     35.86605252	     90.00000001	      0.00000000	      0.00000000	     -4.71747321	     -4.77873711	    -28.42882802	     35.35514939	     90.00000001	      0.00000000	      0.00000000
      1.14000000	      9.96530639	     -1.98884239	      1.65691457	     -0.96834723	      0.90661755	      0.21348577	     -2.71708203	      2.99620445	    -12.50260896	     29.82895999	      5.58128640	      0.52061356	     25.18327893	     17.49444973	     -7.80599033	     22.44083340	     -1.58973521	     -9.02280486	     60.21331904	     -6.25764448	      1.05092067	     11.84665145	     -9.14176600	     -7.80599033	    -24.74915089	      4.98879048	      0.39380191	     12.19643791	    -11.80969223	     -9.65334205	     35.86701658	     90.00000001	      0.00000000	      0.00000000	     -4.96566341	     -4.55847830	    -28.53412009	     35.78878894	     90.00000001	      0.00000000	      0.00000000
      1.15000000	      9.86535390	     -1.90216590	      1.37476923	     -0.96113856	      0.90627678	      0.21415921	     -3.16311233	      2.99009103	    -12.32408137	     29.74208534	      5.42972115	      0.51909732	     25.53984961	     17.60230374	     -7.79807478	     23.08397545	     -1.44201494	     -8.91718757	     57.55109450	     -5.76137708	      1.00445609	     12.02344948	     -8.05914060	     -7.79807478	    -24.73763568	      4.77615867	      0.63044577	     12.81099258	    -11.80169867	     -9.32610920	     35.82971575	     90.00000001	      0.00000000	      0.00000000	     -5.19538904	     -4.35758148	    -28.55782608	     36.15325582	     90.00000001	      0.00000000	      0.00000000
      1.16000000	      9.88787724	     -1.76615043	      1.11722383	     -0.95366601	      0.90612886	      0.21450677	     -3.85891795	      2.80174664	    -12.23956783	     29.54171395	      5.46706036	      0.51560018	     25.88351659	     18.00847393	     -7.78889441	     23.44499490	     -1.18337192	     -9.23846158	     54.63362770	     -5.65318946	      0.95353669	     12.35088065	     -6.44893657	     -7.78889441	    -24.82564096	      4.56514041	      0.78312868	     13.42952598	    -11.82647646	     -8.87888997	     35.73138279	     90.00000001	      0.00000000	      0.00000000	     -5.44589711	     -4.10384901	    -28.66268611	     36.48804973	     90.00000001	      0.00000000	      0.00000000
      1.17000000	      9.67825016	     -1.74980408	      0.88949726	     -0.94638429	      0.90536682	      0.21497315	     -4.20659399	      2.85492729	    -12.11237332	     29.41959104	      5.30307753	      0.51346873	     26.08811470	     18.29268863	     -7.78227931	     24.11260523	     -1.07737663	     -9.31120630	     51.84686269	     -5.40408251	      0.90489846	     12.52619877	     -5.08734399	     -7.78227931	    -24.67426605	      4.47610712	      0.96846783	     13.93398876	    -11.80105699	     -8.56330761	     35.80033443	     90.00000001	      0.00000000	      0.00000000	     -5.62871789	     -3.88994103	    -28.69800178	     36.73567590	     90.00000001	      0.00000000	      0.00000000
      1.18000000	      9.85904836	     -1.59298346	      0.59206617	     -0.93835122	      0.90525250	      0.21526017	     -5.16989108	      2.51574355	    -12.41542555	     29.18679200	      5.33134337	      0.50940562	     26.50824523	     19.68273216	     -7.75988351	     24.11111796	     -0.88611283	    -10.76470857	     48.71127959	     -6.03743484	      0.85017221	     13.53993351	     -1.15593167	     -7.75988351	    -24.86476308	      4.23515552	      1.11728044	     14.43816476	    -11.84348342	     -7.98464452	     35.79990112	     90.00000001	      0.00000000	      0.00000000	     -5.86815804	     -3.63817109	    -28.89967282	     36.96848991	     90.00000001	      0.00000000	      0.00000000
      1.19000000	      9.83320425	     -1.51155758	      0.39795152	     -0.93073894	      0.90468343	      0.21536515	     -5.86071803	      2.31282288	    -12.37375313	     28.95597411	      5.47175219	      0.50537709	     26.79124247	     20.08787777	     -7.74790124	     24.37379913	     -0.70788162	    -11.20784087	     45.78848300	     -5.96092509	      0.79915979	     13.80318366	      0.66813998	     -7.74790124	    -24.87211853	      4.12337221	      1.18155582	     14.97162175	    -11.81149530	     -7.63131214	     35.76128589	     90.00000001	      0.00000000	      0.00000000	     -6.05102091	     -3.40905132	    -28.97188643	     37.10388952	     90.00000001	      0.00000000	      0.00000000
      1.20000000	      9.46773057	     -1.66863740	      0.26316475	     -0.92350224	      0.90326105	      0.21551899	     -5.99855808	      2.53219011	    -12.19988050	     28.90673997	      5.38196256	      0.50451779	     26.96888186	     20.13068670	     -7.74357867	     25.16111761	     -0.81656917	    -11.03270382	     43.28525034	     -5.52975681	      0.75547014	     13.79013703	      1.55534169	     -7.74357867	    -24.53718055	      4.28150556	      1.33190380	     15.38675330	    -11.81261462	     -7.45457114	     35.89477972	     90.00000001	      0.00000000	      0.00000000	     -6.19531530	     -3.18497646	    -28.91850567	     37.16831753	     90.00000001	      0.00000000	      0.00000000
